<svg viewBox="0 0 1300 1650" xmlns="http://www.w3.org/2000/svg">
  <defs>
    <marker id="arrowhead" markerWidth="10" markerHeight="10" refX="9" refY="3" orient="auto">
      <polygon points="0 0, 10 3, 0 6" fill="#333" />
    </marker>
  </defs>
  
  <!-- DRIVERS Entity -->
  <g id="drivers">
    <rect x="100" y="100" width="180" height="60" fill="#e3f2fd" stroke="#1976d2" stroke-width="2"/>
    <text x="190" y="135" text-anchor="middle" font-size="18" font-weight="bold">DRIVERS</text>
    
    <!-- Attributes -->
    <ellipse cx="60" cy="210" rx="60" ry="25" fill="#fff" stroke="#333" stroke-width="1.5"/>
    <text x="60" y="215" text-anchor="middle" font-size="12" text-decoration="underline">driver_id</text>
    
    <ellipse cx="190" cy="210" rx="75" ry="25" fill="#fff" stroke="#333" stroke-width="1.5"/>
    <text x="190" y="215" text-anchor="middle" font-size="12">driver_number</text>
    
    <ellipse cx="330" cy="210" rx="65" ry="25" fill="#fff" stroke="#333" stroke-width="1.5"/>
    <text x="330" y="215" text-anchor="middle" font-size="12">abbreviation</text>
    
    <ellipse cx="30" cy="310" rx="55" ry="25" fill="#fff" stroke="#333" stroke-width="1.5"/>
    <text x="30" y="315" text-anchor="middle" font-size="12">full_name</text>
    
    <ellipse cx="190" cy="320" rx="60" ry="25" fill="#fff" stroke="#333" stroke-width="1.5"/>
    <text x="190" y="325" text-anchor="middle" font-size="12">team_name</text>
    
    <ellipse cx="360" cy="310" rx="35" ry="25" fill="#fff" stroke="#333" stroke-width="1.5"/>
    <text x="360" y="315" text-anchor="middle" font-size="12">year</text>
    
    <!-- Lines connecting attributes -->
    <line x1="150" y1="160" x2="85" y2="190" stroke="#333" stroke-width="1"/>
    <line x1="190" y1="160" x2="190" y2="185" stroke="#333" stroke-width="1"/>
    <line x1="230" y1="160" x2="310" y2="190" stroke="#333" stroke-width="1"/>
    <line x1="130" y1="160" x2="55" y2="290" stroke="#333" stroke-width="1"/>
    <line x1="190" y1="160" x2="190" y2="295" stroke="#333" stroke-width="1"/>
    <line x1="250" y1="160" x2="345" y2="290" stroke="#333" stroke-width="1"/>
  </g>
  
  <!-- TEAMS Entity -->
  <g id="teams">
    <rect x="600" y="100" width="180" height="60" fill="#e8f5e9" stroke="#388e3c" stroke-width="2"/>
    <text x="690" y="135" text-anchor="middle" font-size="18" font-weight="bold">TEAMS</text>
    
    <!-- Attributes -->
    <ellipse cx="570" cy="220" rx="50" ry="25" fill="#fff" stroke="#333" stroke-width="1.5"/>
    <text x="570" y="225" text-anchor="middle" font-size="12" text-decoration="underline">team_id</text>
    
    <ellipse cx="690" cy="220" rx="60" ry="25" fill="#fff" stroke="#333" stroke-width="1.5"/>
    <text x="690" y="225" text-anchor="middle" font-size="12">team_name</text>
    
    <ellipse cx="810" cy="220" rx="35" ry="25" fill="#fff" stroke="#333" stroke-width="1.5"/>
    <text x="810" y="225" text-anchor="middle" font-size="12">year</text>
    
    <!-- Lines -->
    <line x1="640" y1="160" x2="590" y2="200" stroke="#333" stroke-width="1"/>
    <line x1="690" y1="160" x2="690" y2="195" stroke="#333" stroke-width="1"/>
    <line x1="740" y1="160" x2="795" y2="200" stroke="#333" stroke-width="1"/>
  </g>
  
  <!-- Employs Relationship -->
  <g id="employs">
    <path d="M 350,130 L 430,100 L 510,130 L 430,160 Z" fill="#fff9c4" stroke="#f57c00" stroke-width="2"/>
    <text x="430" y="135" text-anchor="middle" font-size="14" font-weight="bold">employs</text>
    
    <line x1="280" y1="130" x2="350" y2="130" stroke="#333" stroke-width="2"/>
    <line x1="510" y1="130" x2="600" y2="130" stroke="#333" stroke-width="2"/>
    
    <text x="315" y="120" font-size="14">M</text>
    <text x="550" y="120" font-size="14">1</text>
  </g>
  
  <!-- RACES Entity -->
  <g id="races">
    <rect x="100" y="550" width="180" height="60" fill="#fff3e0" stroke="#e65100" stroke-width="2"/>
    <text x="190" y="585" text-anchor="middle" font-size="18" font-weight="bold">RACES</text>
    
    <!-- Attributes -->
    <ellipse cx="60" cy="460" rx="45" ry="25" fill="#fff" stroke="#333" stroke-width="1.5"/>
    <text x="60" y="465" text-anchor="middle" font-size="12" text-decoration="underline">race_id</text>
    
    <ellipse cx="190" cy="460" rx="35" ry="25" fill="#fff" stroke="#333" stroke-width="1.5"/>
    <text x="190" y="465" text-anchor="middle" font-size="12">year</text>
    
    <ellipse cx="320" cy="460" rx="70" ry="25" fill="#fff" stroke="#333" stroke-width="1.5"/>
    <text x="320" y="465" text-anchor="middle" font-size="12">round_number</text>
    
    <ellipse cx="30" cy="690" rx="65" ry="25" fill="#fff" stroke="#333" stroke-width="1.5"/>
    <text x="30" y="695" text-anchor="middle" font-size="12">event_name</text>
    
    <ellipse cx="140" cy="700" rx="45" ry="25" fill="#fff" stroke="#333" stroke-width="1.5"/>
    <text x="140" y="705" text-anchor="middle" font-size="12">country</text>
    
    <ellipse cx="260" cy="700" rx="45" ry="25" fill="#fff" stroke="#333" stroke-width="1.5"/>
    <text x="260" y="705" text-anchor="middle" font-size="12">location</text>
    
    <ellipse cx="380" cy="690" rx="60" ry="25" fill="#fff" stroke="#333" stroke-width="1.5"/>
    <text x="380" y="695" text-anchor="middle" font-size="12">event_date</text>
    
    <!-- Lines -->
    <line x1="140" y1="550" x2="85" y2="485" stroke="#333" stroke-width="1"/>
    <line x1="190" y1="550" x2="190" y2="485" stroke="#333" stroke-width="1"/>
    <line x1="240" y1="550" x2="300" y2="485" stroke="#333" stroke-width="1"/>
    <line x1="120" y1="610" x2="60" y2="670" stroke="#333" stroke-width="1"/>
    <line x1="150" y1="610" x2="135" y2="675" stroke="#333" stroke-width="1"/>
    <line x1="210" y1="610" x2="250" y2="675" stroke="#333" stroke-width="1"/>
    <line x1="250" y1="610" x2="360" y2="670" stroke="#333" stroke-width="1"/>
  </g>
  
  <!-- SESSIONS Entity -->
  <g id="sessions">
    <rect x="600" y="550" width="180" height="60" fill="#f3e5f5" stroke="#7b1fa2" stroke-width="2"/>
    <text x="690" y="585" text-anchor="middle" font-size="18" font-weight="bold">SESSIONS</text>
    
    <!-- Attributes -->
    <ellipse cx="560" cy="460" rx="60" ry="25" fill="#fff" stroke="#333" stroke-width="1.5"/>
    <text x="560" y="465" text-anchor="middle" font-size="12" text-decoration="underline">session_id</text>
    
    <ellipse cx="690" cy="460" rx="70" ry="25" fill="#fff" stroke="#333" stroke-width="1.5"/>
    <text x="690" y="465" text-anchor="middle" font-size="12">session_type</text>
    
    <ellipse cx="820" cy="460" rx="70" ry="25" fill="#fff" stroke="#333" stroke-width="1.5"/>
    <text x="820" y="465" text-anchor="middle" font-size="12">session_date</text>
    
    <ellipse cx="540" cy="700" rx="95" ry="25" fill="#fff" stroke="#333" stroke-width="1.5"/>
    <text x="540" y="705" text-anchor="middle" font-size="12">weather_conditions</text>
    
    <ellipse cx="700" cy="700" rx="60" ry="25" fill="#fff" stroke="#333" stroke-width="1.5"/>
    <text x="700" y="705" text-anchor="middle" font-size="12">track_temp</text>
    
    <ellipse cx="850" cy="700" rx="50" ry="25" fill="#fff" stroke="#333" stroke-width="1.5"/>
    <text x="850" y="705" text-anchor="middle" font-size="12">air_temp</text>
    
    <!-- Lines -->
    <line x1="640" y1="550" x2="585" y2="485" stroke="#333" stroke-width="1"/>
    <line x1="690" y1="550" x2="690" y2="485" stroke="#333" stroke-width="1"/>
    <line x1="740" y1="550" x2="800" y2="485" stroke="#333" stroke-width="1"/>
    <line x1="620" y1="610" x2="575" y2="680" stroke="#333" stroke-width="1"/>
    <line x1="680" y1="610" x2="695" y2="675" stroke="#333" stroke-width="1"/>
    <line x1="740" y1="610" x2="830" y2="680" stroke="#333" stroke-width="1"/>
  </g>
  
  <!-- Has Sessions Relationship -->
  <g id="has-sessions">
    <path d="M 350,580 L 430,550 L 510,580 L 430,610 Z" fill="#fff9c4" stroke="#f57c00" stroke-width="2"/>
    <text x="430" y="585" text-anchor="middle" font-size="14" font-weight="bold">has</text>
    
    <line x1="280" y1="580" x2="350" y2="580" stroke="#333" stroke-width="2"/>
    <line x1="510" y1="580" x2="600" y2="580" stroke="#333" stroke-width="2"/>
    
    <text x="310" y="570" font-size="14">1</text>
    <text x="550" y="570" font-size="14">M</text>
  </g>
  
  <!-- QUALIFYING_RESULTS Entity -->
  <g id="qualifying">
    <rect x="50" y="950" width="220" height="60" fill="#e1f5fe" stroke="#0277bd" stroke-width="2"/>
    <text x="160" y="985" text-anchor="middle" font-size="16" font-weight="bold">QUALIFYING_RESULTS</text>
    
    <!-- Key Attributes -->
    <ellipse cx="70" cy="1080" rx="50" ry="25" fill="#fff" stroke="#333" stroke-width="1.5"/>
    <text x="70" y="1085" text-anchor="middle" font-size="11" text-decoration="underline">result_id</text>
    
    <ellipse cx="170" cy="1080" rx="75" ry="25" fill="#fff" stroke="#333" stroke-width="1.5"/>
    <text x="170" y="1085" text-anchor="middle" font-size="11">driver_number</text>
    
    <ellipse cx="290" cy="1080" rx="50" ry="25" fill="#fff" stroke="#333" stroke-width="1.5"/>
    <text x="290" y="1085" text-anchor="middle" font-size="11">position</text>
    
    <line x1="110" y1="1010" x2="80" y2="1055" stroke="#333" stroke-width="1"/>
    <line x1="160" y1="1010" x2="165" y2="1055" stroke="#333" stroke-width="1"/>
    <line x1="210" y1="1010" x2="280" y2="1055" stroke="#333" stroke-width="1"/>
  </g>
  
  <!-- SPRINT_RESULTS Entity -->
  <g id="sprint">
    <rect x="350" y="950" width="200" height="60" fill="#f1f8e9" stroke="#558b2f" stroke-width="2"/>
    <text x="450" y="985" text-anchor="middle" font-size="16" font-weight="bold">SPRINT_RESULTS</text>
    
    <!-- Key Attributes -->
    <ellipse cx="370" cy="1080" rx="50" ry="25" fill="#fff" stroke="#333" stroke-width="1.5"/>
    <text x="370" y="1085" text-anchor="middle" font-size="11" text-decoration="underline">result_id</text>
    
    <ellipse cx="460" cy="1080" rx="50" ry="25" fill="#fff" stroke="#333" stroke-width="1.5"/>
    <text x="460" y="1085" text-anchor="middle" font-size="11">position</text>
    
    <ellipse cx="550" cy="1080" rx="40" ry="25" fill="#fff" stroke="#333" stroke-width="1.5"/>
    <text x="550" y="1085" text-anchor="middle" font-size="11">points</text>
    
    <line x1="390" y1="1010" x2="380" y2="1055" stroke="#333" stroke-width="1"/>
    <line x1="450" y1="1010" x2="455" y2="1055" stroke="#333" stroke-width="1"/>
    <line x1="510" y1="1010" x2="540" y2="1055" stroke="#333" stroke-width="1"/>
  </g>
  
  <!-- RACE_RESULTS Entity -->
  <g id="race-results">
    <rect x="620" y="950" width="200" height="60" fill="#fce4ec" stroke="#c2185b" stroke-width="2"/>
    <text x="720" y="985" text-anchor="middle" font-size="16" font-weight="bold">RACE_RESULTS</text>
    
    <!-- Key Attributes -->
    <ellipse cx="640" cy="1080" rx="50" ry="25" fill="#fff" stroke="#333" stroke-width="1.5"/>
    <text x="640" y="1085" text-anchor="middle" font-size="11" text-decoration="underline">result_id</text>
    
    <ellipse cx="730" cy="1080" rx="50" ry="25" fill="#fff" stroke="#333" stroke-width="1.5"/>
    <text x="730" y="1085" text-anchor="middle" font-size="11">position</text>
    
    <ellipse cx="820" cy="1080" rx="40" ry="25" fill="#fff" stroke="#333" stroke-width="1.5"/>
    <text x="820" y="1085" text-anchor="middle" font-size="11">points</text>
    
    <line x1="670" y1="1010" x2="650" y2="1055" stroke="#333" stroke-width="1"/>
    <line x1="720" y1="1010" x2="725" y2="1055" stroke="#333" stroke-width="1"/>
    <line x1="770" y1="1010" x2="810" y2="1055" stroke="#333" stroke-width="1"/>
  </g>
  
  <!-- PREDICTIONS Entity -->
  <g id="predictions">
    <rect x="900" y="950" width="200" height="60" fill="#ede7f6" stroke="#5e35b1" stroke-width="2"/>
    <text x="1000" y="985" text-anchor="middle" font-size="16" font-weight="bold">PREDICTIONS</text>
    
    <!-- Key Attributes -->
    <ellipse cx="920" cy="1080" rx="75" ry="25" fill="#fff" stroke="#333" stroke-width="1.5"/>
    <text x="920" y="1085" text-anchor="middle" font-size="11" text-decoration="underline">prediction_id</text>
    
    <ellipse cx="1030" cy="1080" rx="70" ry="25" fill="#fff" stroke="#333" stroke-width="1.5"/>
    <text x="1030" y="1085" text-anchor="middle" font-size="11">session_type</text>
    
    <ellipse cx="1150" cy="1080" rx="85" ry="25" fill="#fff" stroke="#333" stroke-width="1.5"/>
    <text x="1150" y="1085" text-anchor="middle" font-size="11">predicted_position</text>
    
    <line x1="950" y1="1010" x2="935" y2="1055" stroke="#333" stroke-width="1"/>
    <line x1="1000" y1="1010" x2="1020" y2="1055" stroke="#333" stroke-width="1"/>
    <line x1="1050" y1="1010" x2="1130" y2="1055" stroke="#333" stroke-width="1"/>
  </g>
  
  <!-- Relationships from Sessions to Results -->
  <line x1="690" y1="610" x2="690" y2="800" stroke="#333" stroke-width="2"/>
  <line x1="690" y1="800" x2="160" y2="950" stroke="#333" stroke-width="2"/>
  <line x1="690" y1="800" x2="450" y2="950" stroke="#333" stroke-width="2"/>
  <line x1="690" y1="800" x2="720" y2="950" stroke="#333" stroke-width="2"/>
  <line x1="690" y1="800" x2="1000" y2="950" stroke="#333" stroke-width="2"/>
  
  <text x="695" y="720" font-size="14">1</text>
  <text x="165" y="940" font-size="14">M</text>
  <text x="455" y="940" font-size="14">M</text>
  <text x="725" y="940" font-size="14">M</text>
  <text x="1005" y="940" font-size="14">M</text>
  
  <!-- AGGREGATED_LAPS Entity -->
  <g id="laps">
    <rect x="50" y="1400" width="240" height="60" fill="#e0f2f1" stroke="#00695c" stroke-width="2"/>
    <text x="170" y="1435" text-anchor="middle" font-size="16" font-weight="bold">AGGREGATED_LAPS</text>
    
    <!-- Key Attributes -->
    <ellipse cx="70" cy="1540" rx="40" ry="25" fill="#fff" stroke="#333" stroke-width="1.5"/>
    <text x="70" y="1545" text-anchor="middle" font-size="11" text-decoration="underline">lap_id</text>
    
    <ellipse cx="180" cy="1540" rx="65" ry="25" fill="#fff" stroke="#333" stroke-width="1.5"/>
    <text x="180" y="1545" text-anchor="middle" font-size="11">lap_number</text>
    
    <ellipse cx="300" cy="1540" rx="55" ry="25" fill="#fff" stroke="#333" stroke-width="1.5"/>
    <text x="300" y="1545" text-anchor="middle" font-size="11">lap_time</text>
    
    <line x1="120" y1="1460" x2="80" y2="1515" stroke="#333" stroke-width="1"/>
    <line x1="170" y1="1460" x2="175" y2="1515" stroke="#333" stroke-width="1"/>
    <line x1="220" y1="1460" x2="290" y2="1515" stroke="#333" stroke-width="1"/>
  </g>
  
  <!-- TYRE_STATS Entity -->
  <g id="tyres">
    <rect x="450" y="1400" width="200" height="60" fill="#fff8e1" stroke="#f57f17" stroke-width="2"/>
    <text x="550" y="1435" text-anchor="middle" font-size="16" font-weight="bold">TYRE_STATS</text>
    
    <!-- Key Attributes -->
    <ellipse cx="460" cy="1540" rx="70" ry="25" fill="#fff" stroke="#333" stroke-width="1.5"/>
    <text x="460" y="1545" text-anchor="middle" font-size="11" text-decoration="underline">tyre_stat_id</text>
    
    <ellipse cx="570" cy="1540" rx="60" ry="25" fill="#fff" stroke="#333" stroke-width="1.5"/>
    <text x="570" y="1545" text-anchor="middle" font-size="11">compound</text>
    
    <ellipse cx="680" cy="1540" rx="60" ry="25" fill="#fff" stroke="#333" stroke-width="1.5"/>
    <text x="680" y="1545" text-anchor="middle" font-size="11">total_laps</text>
    
    <line x1="490" y1="1460" x2="475" y2="1515" stroke="#333" stroke-width="1"/>
    <line x1="550" y1="1460" x2="565" y2="1515" stroke="#333" stroke-width="1"/>
    <line x1="610" y1="1460" x2="670" y2="1515" stroke="#333" stroke-width="1"/>
  </g>
  
  <!-- Relationships from Sessions to Laps and Tyres -->
  <line x1="690" y1="610" x2="690" y2="1250" stroke="#333" stroke-width="2"/>
  <line x1="690" y1="1250" x2="170" y2="1400" stroke="#333" stroke-width="2"/>
  <line x1="690" y1="1250" x2="550" y2="1400" stroke="#333" stroke-width="2"/>
  
  <text x="695" y="1100" font-size="14">1</text>
  <text x="175" y="1390" font-size="14">M</text>
  <text x="555" y="1390" font-size="14">M</text>
  
</svg>